<?xml version="1.0" encoding="UTF-8" standalone="no" ?>
    <!DOCTYPE svg PUBLIC "-//W3C//DTD SVG 1.1//EN" "http://www.w3.org/Graphics/SVG/1.1/DTD/svg11.dtd">
    <svg version="1.1" xmlns="http://www.w3.org/2000/svg" xmlns:xlink="http://www.w3.org/1999/xlink" width="30" height="35" xml:space="preserve">
	<g transform="translate(0,0) scale(1)">
    <path cs="100,100" d="M3.5,13.277C3.5,6.22,9.22,0.5,16.276,0.5C23.333,0.5,29.053,6.22,29.053,13.277C29.053,14.54,28.867,15.759,28.526,16.914C26.707,24.271,16.219,32.5,16.219,32.5C16.219,32.5,4.37,23.209,3.673,15.542C3.673,15.542,3.704,15.536,3.704,15.536C3.572,14.804,3.5,14.049,3.5,13.277C3.5,13.277,3.5,13.277,3.5,13.277M16.102,16.123C18.989,16.123,21.329,13.782,21.329,10.895C21.329,8.008,18.989,5.668,16.102,5.668C13.216,5.668,10.876,8.008,10.876,10.895C10.876,13.782,13.216,16.123,16.102,16.123C16.102,16.123,16.102,16.123,16.102,16.123" stroke-opacity="0" fill-opacity="1" fill="#FF1E00"></path>
	</g>
    </svg>